<?xml version="1.0" encoding="utf-8"?>
<!-- Generator: Adobe Illustrator 16.0.0, SVG Export Plug-In . SVG Version: 6.00 Build 0)  -->
<!DOCTYPE svg PUBLIC "-//W3C//DTD SVG 1.1//EN" "http://www.w3.org/Graphics/SVG/1.1/DTD/svg11.dtd">
<svg version="1.1" id="Layer_1" xmlns="http://www.w3.org/2000/svg" xmlns:xlink="http://www.w3.org/1999/xlink" x="0px" y="0px"
	 width="540px" height="180px" viewBox="0 0 540 180" enable-background="new 0 0 540 180" xml:space="preserve">
<rect width="540" height="180"/>
<rect x="8" y="8" fill="#FFFFFF" width="525" height="165"/>
<g>
	<g>
		<path d="M79.102,68.495H60.001v30.501c0,5.201,0.1,11.502,6.9,11.502c5.701,0,9.201-4.701,11.301-9.401l7.201,1.8
			c-3.601,7.701-9.701,13.901-18.701,13.901c-8.701,0-14.201-4.2-14.201-20.201V68.495H41v-6.301h11.5V45.793h7.5v16.401h19.101
			V68.495z"/>
		<path d="M104.699,41.493h7.5v28.401c3.8-5.1,9.5-8.801,16.101-8.801c6.4,0,13.801,2.001,13.801,23.902v30.701h-7.5V84.396
			c0-4.9,0-17.002-6.8-17.002c-5.601,0-10.601,5-12.901,9.701c-2.9,6-2.7,12-2.7,18.701v19.9h-7.5V41.493z"/>
		<path d="M180.499,68.495h-15.201v-6.301H188v53.503h-7.5V68.495z M190.3,48.594c0,3.6-2.8,6.301-6.3,6.301
			c-3.5,0-6.301-2.701-6.301-6.301s2.8-6.301,6.301-6.301C187.5,42.293,190.3,44.994,190.3,48.594z"/>
		<path d="M255.999,73.395c-4.2-3-8.9-6-14.301-6c-4.501,0-8.701,3.301-8.701,8.101c0,5.2,6.201,7.801,10.301,9.301
			c8.4,3.101,17.201,6.601,17.201,17.201c0,8.8-8.001,14.801-16.302,14.801c-8.101,0-16.101-4.001-22.001-9.301l4.1-6
			c4.2,4.5,11.101,9.001,17.401,9.001c5.001,0,9.301-2.801,9.301-8.201c0-7-5.601-8.9-11.101-11
			c-7.601-2.9-16.401-6.501-16.401-16.102c0-7.801,7.201-14.102,16.501-14.102c6.701,0,12.001,2.4,17.301,6.201L255.999,73.395z"/>
		<path d="M291.496,115.697h-7.5V88.796c0-9.001-0.4-18.101-2.4-26.602h7.201l1.699,9.801c3.801-6.3,10.701-10.901,18.201-10.901
			c8.501,0,12.901,7.801,12.901,16.902v37.701h-7.501V80.195c0-5.1,0-12.801-6.6-12.801c-7.102,0-16.002,7.201-16.002,26.002
			V115.697z"/>
		<path d="M349.096,90.896c0.4,14.701,7,19.602,15.201,19.602c5.9,0,11.801-2.701,16.701-5.701l3.199,6.701
			c-6.699,3-13.1,5.3-20.5,5.3c-15.802,0-22.102-13.601-22.102-27.502c0-14.001,6.5-28.202,22.5-28.202
			c17.803,0,20.602,19.902,20.602,25.702v4.101H349.096z M377.197,84.596c-0.301-8.801-5.301-17.201-13.701-17.201
			s-12.5,6.4-14.5,17.201H377.197z"/>
		<path d="M435.996,73.395c-4.199-3-8.9-6-14.301-6c-4.5,0-8.699,3.301-8.699,8.101c0,5.2,6.199,7.801,10.299,9.301
			c8.402,3.101,17.201,6.601,17.201,17.201c0,8.8-8,14.801-16.301,14.801c-8.1,0-16.1-4.001-22-9.301l4.1-6
			c4.199,4.5,11.102,9.001,17.4,9.001c5,0,9.301-2.801,9.301-8.201c0-7-5.6-8.9-11.1-11c-7.602-2.9-16.402-6.501-16.402-16.102
			c0-7.801,7.201-14.102,16.502-14.102c6.699,0,12,2.4,17.301,6.201L435.996,73.395z"/>
		<path d="M495.996,73.395c-4.201-3-8.9-6-14.301-6c-4.5,0-8.701,3.301-8.701,8.101c0,5.2,6.201,7.801,10.301,9.301
			c8.4,3.101,17.201,6.601,17.201,17.201c0,8.8-8,14.801-16.301,14.801c-8.102,0-16.102-4.001-22.002-9.301l4.1-6
			c4.201,4.5,11.102,9.001,17.402,9.001c5,0,9.301-2.801,9.301-8.201c0-7-5.602-8.9-11.102-11c-7.6-2.9-16.4-6.501-16.4-16.102
			c0-7.801,7.199-14.102,16.5-14.102c6.701,0,12.002,2.4,17.301,6.201L495.996,73.395z"/>
	</g>
	<rect x="41" y="132.798" width="219.5" height="7.5"/>
</g>
</svg>
